<mxfile host="app.diagrams.net" modified="2021-08-20T02:39:11.014Z" agent="5.0 (Macintosh; Intel Mac OS X 10_15_7) AppleWebKit/537.36 (KHTML, like Gecko) Chrome/92.0.4515.131 Safari/537.36" etag="x6uHYFLij9OQosPWonaz" version="14.9.7" type="github">
  <diagram id="C5RBs43oDa-KdzZeNtuy" name="Page-1">
    <mxGraphModel dx="943" dy="544" grid="1" gridSize="10" guides="1" tooltips="1" connect="1" arrows="1" fold="1" page="1" pageScale="1" pageWidth="827" pageHeight="1169" math="0" shadow="0">
      <root>
        <mxCell id="WIyWlLk6GJQsqaUBKTNV-0" />
        <mxCell id="WIyWlLk6GJQsqaUBKTNV-1" parent="WIyWlLk6GJQsqaUBKTNV-0" />
        <mxCell id="WIyWlLk6GJQsqaUBKTNV-3" value="Process input statistics data for a list of 32 tennis players" style="rounded=1;whiteSpace=wrap;html=1;fontSize=12;glass=0;strokeWidth=1;shadow=0;fillColor=#d5e8d4;strokeColor=#82b366;" parent="WIyWlLk6GJQsqaUBKTNV-1" vertex="1">
          <mxGeometry x="150" y="140" width="160" height="60" as="geometry" />
        </mxCell>
        <mxCell id="Y6ukIuZ310_lgU7GoK3n-22" value="" style="edgeStyle=orthogonalEdgeStyle;rounded=0;orthogonalLoop=1;jettySize=auto;html=1;endArrow=block;endFill=0;endSize=8;" edge="1" parent="WIyWlLk6GJQsqaUBKTNV-1" source="Y6ukIuZ310_lgU7GoK3n-0" target="Y6ukIuZ310_lgU7GoK3n-2">
          <mxGeometry relative="1" as="geometry" />
        </mxCell>
        <mxCell id="Y6ukIuZ310_lgU7GoK3n-0" value="Perform bracket seeding for 1st round&#39;s 16 matches" style="rounded=1;whiteSpace=wrap;html=1;fontSize=12;glass=0;strokeWidth=1;shadow=0;fillColor=#dae8fc;strokeColor=#6c8ebf;" vertex="1" parent="WIyWlLk6GJQsqaUBKTNV-1">
          <mxGeometry x="150" y="240" width="160" height="60" as="geometry" />
        </mxCell>
        <mxCell id="Y6ukIuZ310_lgU7GoK3n-1" value="" style="rounded=1;html=1;jettySize=auto;orthogonalLoop=1;fontSize=11;endArrow=block;endFill=0;endSize=8;strokeWidth=1;shadow=0;labelBackgroundColor=none;edgeStyle=orthogonalEdgeStyle;" edge="1" parent="WIyWlLk6GJQsqaUBKTNV-1" source="WIyWlLk6GJQsqaUBKTNV-3" target="Y6ukIuZ310_lgU7GoK3n-0">
          <mxGeometry relative="1" as="geometry">
            <mxPoint x="230" y="230" as="sourcePoint" />
            <mxPoint x="230" y="410" as="targetPoint" />
          </mxGeometry>
        </mxCell>
        <mxCell id="Y6ukIuZ310_lgU7GoK3n-23" value="" style="edgeStyle=orthogonalEdgeStyle;rounded=0;orthogonalLoop=1;jettySize=auto;html=1;endArrow=block;endFill=0;endSize=8;" edge="1" parent="WIyWlLk6GJQsqaUBKTNV-1" source="Y6ukIuZ310_lgU7GoK3n-2" target="Y6ukIuZ310_lgU7GoK3n-3">
          <mxGeometry relative="1" as="geometry" />
        </mxCell>
        <mxCell id="Y6ukIuZ310_lgU7GoK3n-2" value="Simulate all 16 matches of 1st round" style="rounded=1;whiteSpace=wrap;html=1;fillColor=#f8cecc;strokeColor=#b85450;" vertex="1" parent="WIyWlLk6GJQsqaUBKTNV-1">
          <mxGeometry x="150" y="340" width="160" height="60" as="geometry" />
        </mxCell>
        <mxCell id="Y6ukIuZ310_lgU7GoK3n-24" value="" style="edgeStyle=orthogonalEdgeStyle;rounded=0;orthogonalLoop=1;jettySize=auto;html=1;endArrow=block;endFill=0;endSize=8;" edge="1" parent="WIyWlLk6GJQsqaUBKTNV-1" source="Y6ukIuZ310_lgU7GoK3n-3" target="Y6ukIuZ310_lgU7GoK3n-9">
          <mxGeometry relative="1" as="geometry" />
        </mxCell>
        <mxCell id="Y6ukIuZ310_lgU7GoK3n-3" value="Based on the results from 1st round, schedule 2nd round matches" style="rounded=1;whiteSpace=wrap;html=1;fillColor=#dae8fc;strokeColor=#6c8ebf;" vertex="1" parent="WIyWlLk6GJQsqaUBKTNV-1">
          <mxGeometry x="150" y="440" width="160" height="60" as="geometry" />
        </mxCell>
        <mxCell id="Y6ukIuZ310_lgU7GoK3n-25" value="" style="edgeStyle=orthogonalEdgeStyle;rounded=0;orthogonalLoop=1;jettySize=auto;html=1;endArrow=block;endFill=0;endSize=8;" edge="1" parent="WIyWlLk6GJQsqaUBKTNV-1" source="Y6ukIuZ310_lgU7GoK3n-9" target="Y6ukIuZ310_lgU7GoK3n-12">
          <mxGeometry relative="1" as="geometry" />
        </mxCell>
        <mxCell id="Y6ukIuZ310_lgU7GoK3n-9" value="Simulate 2nd round&#39;s 8 matches" style="rounded=1;whiteSpace=wrap;html=1;fillColor=#f8cecc;strokeColor=#b85450;" vertex="1" parent="WIyWlLk6GJQsqaUBKTNV-1">
          <mxGeometry x="150" y="540" width="160" height="60" as="geometry" />
        </mxCell>
        <mxCell id="Y6ukIuZ310_lgU7GoK3n-26" style="edgeStyle=orthogonalEdgeStyle;rounded=0;orthogonalLoop=1;jettySize=auto;html=1;entryX=0.5;entryY=0;entryDx=0;entryDy=0;endArrow=block;endFill=0;endSize=8;" edge="1" parent="WIyWlLk6GJQsqaUBKTNV-1" source="Y6ukIuZ310_lgU7GoK3n-12" target="Y6ukIuZ310_lgU7GoK3n-13">
          <mxGeometry relative="1" as="geometry" />
        </mxCell>
        <mxCell id="Y6ukIuZ310_lgU7GoK3n-12" value="Based on the results from 2nd round, schedule quarter final matches" style="rounded=1;whiteSpace=wrap;html=1;fillColor=#dae8fc;strokeColor=#6c8ebf;" vertex="1" parent="WIyWlLk6GJQsqaUBKTNV-1">
          <mxGeometry x="150" y="640" width="160" height="60" as="geometry" />
        </mxCell>
        <mxCell id="Y6ukIuZ310_lgU7GoK3n-27" value="" style="edgeStyle=orthogonalEdgeStyle;rounded=0;orthogonalLoop=1;jettySize=auto;html=1;endArrow=block;endFill=0;endSize=8;" edge="1" parent="WIyWlLk6GJQsqaUBKTNV-1" source="Y6ukIuZ310_lgU7GoK3n-13" target="Y6ukIuZ310_lgU7GoK3n-17">
          <mxGeometry relative="1" as="geometry" />
        </mxCell>
        <mxCell id="Y6ukIuZ310_lgU7GoK3n-13" value="Simulate quarter final matches" style="rounded=1;whiteSpace=wrap;html=1;fillColor=#f8cecc;strokeColor=#b85450;" vertex="1" parent="WIyWlLk6GJQsqaUBKTNV-1">
          <mxGeometry x="450" y="140" width="160" height="60" as="geometry" />
        </mxCell>
        <mxCell id="Y6ukIuZ310_lgU7GoK3n-28" value="" style="edgeStyle=orthogonalEdgeStyle;rounded=0;orthogonalLoop=1;jettySize=auto;html=1;endArrow=block;endFill=0;endSize=8;" edge="1" parent="WIyWlLk6GJQsqaUBKTNV-1" source="Y6ukIuZ310_lgU7GoK3n-17" target="Y6ukIuZ310_lgU7GoK3n-18">
          <mxGeometry relative="1" as="geometry" />
        </mxCell>
        <mxCell id="Y6ukIuZ310_lgU7GoK3n-17" value="Based on the results from quarter final, schedule semi final matches" style="rounded=1;whiteSpace=wrap;html=1;fillColor=#dae8fc;strokeColor=#6c8ebf;" vertex="1" parent="WIyWlLk6GJQsqaUBKTNV-1">
          <mxGeometry x="450" y="240" width="160" height="60" as="geometry" />
        </mxCell>
        <mxCell id="Y6ukIuZ310_lgU7GoK3n-29" value="" style="edgeStyle=orthogonalEdgeStyle;rounded=0;orthogonalLoop=1;jettySize=auto;html=1;endArrow=block;endFill=0;endSize=8;" edge="1" parent="WIyWlLk6GJQsqaUBKTNV-1" source="Y6ukIuZ310_lgU7GoK3n-18" target="Y6ukIuZ310_lgU7GoK3n-19">
          <mxGeometry relative="1" as="geometry" />
        </mxCell>
        <mxCell id="Y6ukIuZ310_lgU7GoK3n-18" value="Simulate semi final matches" style="rounded=1;whiteSpace=wrap;html=1;fillColor=#f8cecc;strokeColor=#b85450;" vertex="1" parent="WIyWlLk6GJQsqaUBKTNV-1">
          <mxGeometry x="450" y="340" width="160" height="60" as="geometry" />
        </mxCell>
        <mxCell id="Y6ukIuZ310_lgU7GoK3n-30" value="" style="edgeStyle=orthogonalEdgeStyle;rounded=0;orthogonalLoop=1;jettySize=auto;html=1;endArrow=block;endFill=0;endSize=8;" edge="1" parent="WIyWlLk6GJQsqaUBKTNV-1" source="Y6ukIuZ310_lgU7GoK3n-19" target="Y6ukIuZ310_lgU7GoK3n-20">
          <mxGeometry relative="1" as="geometry" />
        </mxCell>
        <mxCell id="Y6ukIuZ310_lgU7GoK3n-19" value="Based on the results from semi final, schedule final match" style="rounded=1;whiteSpace=wrap;html=1;fillColor=#dae8fc;strokeColor=#6c8ebf;" vertex="1" parent="WIyWlLk6GJQsqaUBKTNV-1">
          <mxGeometry x="450" y="440" width="160" height="60" as="geometry" />
        </mxCell>
        <mxCell id="Y6ukIuZ310_lgU7GoK3n-31" value="" style="edgeStyle=orthogonalEdgeStyle;rounded=0;orthogonalLoop=1;jettySize=auto;html=1;endArrow=block;endFill=0;endSize=8;" edge="1" parent="WIyWlLk6GJQsqaUBKTNV-1" source="Y6ukIuZ310_lgU7GoK3n-20" target="Y6ukIuZ310_lgU7GoK3n-21">
          <mxGeometry relative="1" as="geometry" />
        </mxCell>
        <mxCell id="Y6ukIuZ310_lgU7GoK3n-20" value="Simulate final match" style="rounded=1;whiteSpace=wrap;html=1;fillColor=#f8cecc;strokeColor=#b85450;" vertex="1" parent="WIyWlLk6GJQsqaUBKTNV-1">
          <mxGeometry x="450" y="540" width="160" height="60" as="geometry" />
        </mxCell>
        <mxCell id="Y6ukIuZ310_lgU7GoK3n-21" value="Tournament Winner" style="rounded=1;whiteSpace=wrap;html=1;fillColor=#e1d5e7;strokeColor=#9673a6;" vertex="1" parent="WIyWlLk6GJQsqaUBKTNV-1">
          <mxGeometry x="451" y="640" width="159" height="60" as="geometry" />
        </mxCell>
        <mxCell id="Y6ukIuZ310_lgU7GoK3n-32" value="" style="shape=flexArrow;endArrow=classic;html=1;endSize=4.67;entryX=0.5;entryY=0;entryDx=0;entryDy=0;endWidth=10;width=6;" edge="1" parent="WIyWlLk6GJQsqaUBKTNV-1" target="WIyWlLk6GJQsqaUBKTNV-3">
          <mxGeometry width="50" height="50" relative="1" as="geometry">
            <mxPoint x="230" y="110" as="sourcePoint" />
            <mxPoint x="260" y="90" as="targetPoint" />
          </mxGeometry>
        </mxCell>
      </root>
    </mxGraphModel>
  </diagram>
</mxfile>
